# Blender v3.2.0 OBJ File: ''
# www.blender.org
mtllib brick.mtl
o Cube
v 1.000000 1.000000 -1.000000
v 1.000000 -1.000000 -1.000000
v 1.000000 1.000000 1.000000
v 1.000000 -1.000000 1.000000
v -1.000000 1.000000 -1.000000
v -1.000000 -1.000000 -1.000000
v -1.000000 1.000000 1.000000
v -1.000000 -1.000000 1.000000
vt 0.005834 0.021688
vt 1.003458 0.021688
vt 1.003458 0.969045
vt 0.005834 0.969045
vt 0.002090 0.001233
vt 1.006072 0.001233
vt 1.006072 0.949082
vt 0.002090 0.949082
vt 0.005269 -0.001539
vt 1.002892 -0.001539
vt 1.002892 0.945819
vt 0.005269 0.945819
vt 0.004703 0.021688
vt 1.002328 0.021688
vt 1.002328 0.969045
vt 0.004703 0.969045
vt 0.002151 0.010496
vt 1.001089 0.010496
vt 1.001089 0.948415
vt 0.002151 0.948415
vt 0.005269 0.010074
vt 1.002893 0.010074
vt 1.002893 0.957432
vt 0.005269 0.957432
vn 0.0000 1.0000 0.0000
vn 0.0000 0.0000 1.0000
vn -1.0000 0.0000 0.0000
vn 0.0000 -1.0000 0.0000
vn 1.0000 0.0000 0.0000
vn 0.0000 0.0000 -1.0000
usemtl Material
s off
f 1/1/1 5/2/1 7/3/1 3/4/1
f 4/5/2 3/6/2 7/7/2 8/8/2
f 8/9/3 7/10/3 5/11/3 6/12/3
f 6/13/4 2/14/4 4/15/4 8/16/4
f 2/17/5 1/18/5 3/19/5 4/20/5
f 6/21/6 5/22/6 1/23/6 2/24/6
